<svg width="600" height="600" viewBox="0 0 600 600" fill="none" xmlns="http://www.w3.org/2000/svg">
<path d="M473.303 320V336.5H500.003V316.8C500.003 310.4 499.303 304.5 498.003 299.3C496.803 294.1 494.703 289.5 491.603 285.7C488.603 281.9 484.603 279 479.403 276.9C474.403 274.8 468.103 273.7 460.403 273.7C457.803 273.7 455.003 274 452.203 274.6C449.503 275.1 447.203 275.6 445.403 276.2V231.1L418.703 235.4V369.9H445.403V298.3C447.103 297.8 448.903 297.4 450.903 297C453.003 296.5 455.303 296.3 457.703 296.3C463.703 296.3 467.703 298.1 469.903 301.7C472.203 305.3 473.303 311.4 473.303 320Z" fill="#06020D"/>
<path d="M500 370L473 367.566V344H500V370Z" fill="#FDAE40"/>
<path fill-rule="evenodd" clip-rule="evenodd" d="M409.497 322.1C400.997 330.2 389.597 335.1 376.897 335.1C350.897 335.1 329.797 314 329.797 288C329.797 262 350.897 240.9 376.897 240.9C389.697 240.9 401.297 246 409.797 254.3L392.797 271.3C388.597 267.4 382.997 265 376.697 265C363.697 265 353.197 275.5 353.197 288.5C353.197 301.5 363.697 312 376.697 312C382.997 312 388.597 309.6 392.897 305.6L409.497 322.1Z" fill="#FDAE40"/>
<path fill-rule="evenodd" clip-rule="evenodd" d="M409.497 356.4C400.997 364.5 389.597 369.4 376.897 369.4C350.897 369.4 329.797 348.3 329.797 322.3C329.797 296.3 350.897 275.2 376.897 275.2C389.697 275.2 401.297 280.3 409.797 288.6L392.897 305.6C388.697 301.7 382.997 299.3 376.697 299.3C363.697 299.3 353.197 309.8 353.197 322.8C353.197 335.8 363.697 346.3 376.697 346.3C382.997 346.3 388.597 343.9 392.897 339.9L409.497 356.4Z" fill="#FF5D46"/>
<path d="M320.402 344.5C317.902 345.5 315.102 346.2 312.002 346.8C309.002 347.3 306.102 347.5 303.202 347.5C297.202 347.5 293.202 345.8 291.202 342.5C289.302 339.2 288.302 334.7 288.302 329.1V296H320.302V273.8H288.302V246.1L261.602 250.4V329.5C261.602 335.6 262.102 341.1 263.202 346.1C264.402 351.1 266.402 355.4 269.302 359C272.202 362.5 276.002 365.2 280.802 367.2C285.602 369.1 291.602 370.1 298.902 370.1C304.602 370.1 309.502 369.6 313.402 368.7C317.302 367.7 320.902 366.6 324.102 365.3L320.402 344.5Z" fill="#06020D"/>
<path d="M208.702 271.301C203.002 271.301 197.402 272.401 191.902 274.501C186.502 276.601 181.802 279.801 177.602 284.001C173.402 288.201 170.002 293.401 167.402 299.701C164.902 305.901 163.602 313.201 163.602 321.501C163.602 328.401 164.602 334.901 166.502 340.801C168.502 346.801 171.602 352.001 175.602 356.401C179.802 360.701 185.002 364.101 191.202 366.601C197.502 369.101 204.902 370.401 213.402 370.401C216.702 370.401 220.102 370.201 223.402 369.901C226.702 369.501 229.802 369.101 232.702 368.501C235.702 368.001 238.402 367.401 240.802 366.701C243.202 366.001 245.102 365.301 246.502 364.601L242.902 342.901C239.902 344.201 236.002 345.301 231.302 346.301C226.602 347.101 221.902 347.601 217.002 347.601C209.402 347.601 203.302 346.001 198.702 342.801C194.202 339.601 191.602 335.201 191.002 329.701H251.502C251.602 328.301 251.702 326.701 251.902 324.901C252.002 323.001 252.102 321.301 252.102 319.701C252.102 303.801 248.202 291.801 240.502 283.701C232.602 275.401 222.102 271.301 208.702 271.301ZM191.002 311.401C191.402 309.101 191.902 306.901 192.602 304.801C193.402 302.501 194.602 300.601 196.002 298.901C197.402 297.201 199.202 295.901 201.402 295.001C203.502 293.901 206.102 293.401 209.102 293.401C212.202 293.401 214.802 293.901 216.802 295.001C218.902 296.101 220.702 297.401 222.002 299.101C223.402 300.801 224.402 302.701 225.002 304.801C225.702 306.901 226.102 309.201 226.302 311.401H191.002Z" fill="#06020D"/>
<path d="M127.4 262.1C128 260 128.9 258.1 130.1 256.6C131.4 255 133.1 253.9 135.3 253C137.6 252 140.3 251.6 143.5 251.6C145.9 251.6 148.5 251.9 151.2 252.5C154.1 253 156.7 253.8 159.1 254.8L164.3 233.5C162 232.5 158.8 231.6 154.6 230.6C150.4 229.5 145.8 229 140.8 229C127.3 229 117.1 232.6 110.2 239.7C103.4 246.9 100 256.5 100 268.7V335.5H126.7V295.9H159.6V273.7H126.7V269C126.7 266.6 126.9 264.3 127.4 262.1Z" fill="#06020D"/>
<path d="M100 370.1L126.7 367.6V343.5H100V370.1Z" fill="#FF5D46"/>
</svg>
